/* XPM */
static char * wminfo_xpm[] = {
"160 100 11 1",
" 	c blue",
".	c #202020",
"X	c black",
"o	c #C7C3C7",
"O	c #20B2AE",
"+	c #007D71",
"@	c #B60418",
"#	c #00EB00",
"$	c #283C38",
"%	c #F7F3FF",
"&	c #004941",
"                                                                ................................................................................................",
"                                                                ................................................................................................",
"                                                                ................................................................................................",
"                                                                ................................................................................................",
"    XXXXXXXXXXXXXXXXXXXXXXXXXXXXXXXXXXXXXXXXXXXXXXXXXXXXXXXX    ................................................................................................",
"    ........................................................    ................................................................................................",
"    ........................................................    ................................................................................................",
"    ........................................................    ................................................................................................",
"    ........................................................    ................................................................................................",
"    ........................................................    ................................................................................................",
"    ........................................................    ................................................................................................",
"    ........................................................    ................................................................................................",
"    ........................................................    ................................................................................................",
"    ........................................................    ................................................................................................",
"    ........................................................    ................................................................................................",
"    ........................................................    ................................................................................................",
"    ........................................................    ................................................................................................",
"    ........................................................    ................................................................................................",
"    ........................................................    ................................................................................................",
"    ........................................................    ................................................................................................",
"    ........................................................    ................................................................................................",
"    ........................................................    ................................................................................................",
"    ........................................................    ................................................................................................",
"    ........................................................    ................................................................................................",
"    ........................................................    ................................................................................................",
"    ........................................................    ................................................................................................",
"    ........................................................    ................................................................................................",
"    ........................................................    ................................................................................................",
"    ........................................................    ................................................................................................",
"    ........................................................    ................................................................................................",
"    ........................................................    ................................................................................................",
"    ........................................................    ................................................................................................",
"    ........................................................    ................................................................................................",
"    ........................................................    ................................................................................................",
"    ........................................................    ................................................................................................",
"    ........................................................    ................................................................................................",
"    ........................................................    ................................................................................................",
"    ........................................................    ................................................................................................",
"    ........................................................    ................................................................................................",
"    ........................................................    ................................................................................................",
"    ........................................................    ................................................................................................",
"    ........................................................    ................................................................................................",
"    ........................................................    ................................................................................................",
"    ........................................................    ................................................................................................",
"    ........................................................    ................................................................................................",
"    ........................................................    ................................................................................................",
"    ........................................................    ................................................................................................",
"    ........................................................    ................................................................................................",
"    ........................................................    ................................................................................................",
"    ........................................................    ................................................................................................",
"    ........................................................    ................................................................................................",
"    ........................................................    ................................................................................................",
"    ........................................................    ................................................................................................",
"    ........................................................    ................................................................................................",
"    ........................................................    ................................................................................................",
"    ........................................................    ................................................................................................",
"    ........................................................    ................................................................................................",
"    ........................................................    ................................................................................................",
"    ........................................................    ................................................................................................",
"    oooooooooooooooooooooooooooooooooooooooooooooooooooooooo    ................................................................................................",
"                                                                .                                                                                               ",
"                                                                .                                                                                               ",
"                                                                .                                                                                               ",
"                                                                .                                                                                               ",
"................................................................................................................................................................",
"..OOO....+...+OOO+.+OOO+.+...+.+OOO+.+OOO+.+OOO+.+OOO+.+OOO+....................................................................................................",
".O...O...O.......O.....O.O...O.O.....O.........O.O...O.O...O............O.......................................................................................",
".O...O...O.......O.....O.O...O.O.....O.........O.O...O.O...O...O........O.......................................................................................",
".+...+...+...+OOO+..OOO+.+OOO+.+OOO+.+OOO+.....+.&OOO&.+OOO+...+.......O...+OOO+................................................................................",
".O...O...O...O.........O.....O.....O.O...O.....O.O...O.....O...........O........................................................................................",
".O...O...O...O.........O.....O.....O.O...O.....O.O...O.....O...O...O..O.........................................................................................",
"..OOO....O...+OOO+.+OOO+.....+.+OOO+.+OOO+.....+.+OOO+.+OOO+...+...+..O.........................................................................................",
"................................................................................................................................................................",
"                                                                                                                                                                ",
"................................................................................................................................................................",
".&OOO&.+OOO..+OOO+.+OOO..+OOO+.+OOO+.+OOO+.+...+...+.......+.+...+.+.....O...O.+OOO..+OOO+.+OOO+.+OOO+.+OOO+.+OOO+.+OOO+.+...+.+...+.+...+.+...+.+...+.+OOO+....",
".O...O.O...O.O.....O...O.O.....O.....O.....O...O...O.......O.O...O.O.....OO.OO.O...O.O...O.O...O.O...O.O...O.O.......O...O...O.O...O.O...O.O...O.O...O.....O....",
".O...O.O...O.O.....O...O.O.....O.....O.....O...O...O.......O.O..O..O.....O.O.O.O...O.O...O.O...O.O...O.O...O.O.......O...O...O.O...O.O...O..O.O..O...O....O&....",
".+OOO+.+OOO..+.....+...+.+OOO..+OOO..+.OO+.+OOO+...+.......+.+OO&..+.....+...+.+...+.+...+.+OOO+.+O..+.+OOO..+OOO+...+...+...+.+...+.+...+..&O&..+OOO+...O......",
".O...O.O...O.O.....O...O.O.....O.....O...O.O...O...O.......O.O..O..O.....O...O.O...O.O...O.O.....O.O.O.O...O.....O...O...O...O.O+.+O.O.O.O..O.O......O.&O.......",
".O...O.O...O.O.....O...O.O.....O.....O...O.O...O...O.......O.O...O.O.....O...O.O...O.O...O.O.....O..OO.O...O.....O...O...O...O..O+O..OO.OO.O...O.....O.O........",
".+...+.+OOO..+OOO+.OOOO..+OOO+.O.....+OOO+.+...+...O...+OOO+.+...+.+OOO&.+...+.O...O.+OOO+.+.....+OOO+.+...+.+OOO+...+...&OOOO...O...O...O.+...O.+OOO+.+OOO+....",
"................................................................................................................................................................",
"                                                                                                                                                                ",
"..O.O...O.O....O...                                                                                                                                             ",
"...................                                                                                                                                             ",
".&OOO&.&OOO&.&OOO&.                                                                                                                                             ",
".O...O.O...O.O...O.                                                                                                                                             ",
".O...O.O...O.O...O.                                                                                                                                             ",
".O...O.+OOO+.+OOO+.                                                                                                                                             ",
".O...O.O...O.O...O.                                                                                                                                             ",
".&OOO&.+...+.+...+.                                                                                                                                             ",
"...................                                                                                                                                             ",
"                                                                                                                                                                ",
"                                                                                                                                                                ",
"                                                                                                                                                                ",
"                                                                                                                                                                ",
"                                                                                                                                                                ",
"                                                                                                                                                                ",
"                                                                                                                                                                "};
